<?xml version="1.0" encoding="utf-8"?>
<!-- Generator: Adobe Illustrator 26.3.1, SVG Export Plug-In . SVG Version: 6.00 Build 0)  -->
<svg version="1.1" id="Livello_1" xmlns="http://www.w3.org/2000/svg" xmlns:xlink="http://www.w3.org/1999/xlink" x="0px" y="0px"
	 viewBox="0 0 500 500" style="enable-background:new 0 0 500 500;" xml:space="preserve">
<style type="text/css">
	.st0{fill:#FFFFFF;}
</style>
<g>
	<g>
		<path class="st0" d="M472.1,160.6c-4.3-11.3-13-21.3-23.7-28.6c-30.9-19.6-78.1-21.1-109.9-3.2c-17.3,9-28.8,26.5-32.4,44.4
			c-6.4,29.7-4.7,64.9,18.1,87.1c26.7,23.3,65.3,28.6,99.9,19c1.7-0.2,6.8-1.7,10.5-3.4l1.1-0.4c10.7-4.5,20.9-11.7,28.6-21.6
			C481.5,228.1,482.8,189.4,472.1,160.6z M416,227.2c-1.3,5.5-4.9,11.5-10.9,13.7c-9.6,4.3-22.4,3-31.2-1.9
			c-7.5-5.1-8.3-13.9-9.2-22c-0.6-16-1.9-33.1,2.6-47.8c3.6-9.2,13.2-11.5,22.2-12.2c9.2,0,18.4,1.5,24.1,9
			c3.6,5.3,3.4,12.4,4.1,18.8C417,197.8,418.3,213.6,416,227.2z"/>
	</g>
	<g>
		<path class="st0" d="M134.1,241.7c-7.9-0.4-16.6,0.2-24.3-0.6l0.2-81.9l0.4-0.6l23.5-0.2c0.2-13.2,0.4-27.5-0.2-39.7L44,118.4
			l-14.7,0.2c-0.2,12.4-0.2,26.9,0,39.5c8.1,0.2,15.8,0,23.5,0.6v79.2l-0.2,3.2l-23.5,0.4c-0.4,13-0.4,25.6,0,38.6h104.8v-38.4
			H134.1z"/>
	</g>
	<g>
		<path class="st0" d="M398,297.6c-10,14.3-22.6,28-36.3,38.8c-0.4,0.6-1.9,0.4-2.3-0.2c-6-3.6-12.4-6.8-18.1-10.5
			c7.7-9.2,14.9-18.1,20.7-28.4h-7.5c-6,8.7-12.2,17.7-20.1,25.4c-10.5-4.3-20.1-7.9-30.7-10.7l-1.3-0.9c1.7-4.7,4.7-9.2,5.8-13.9
			h-6.4l-6.4,12.6c-14.1-3-29.5-4.7-43.7-5.5c-0.6-2.1,0.2-5.1-0.6-7h-6.2c-0.4,2.8,0.6,4.9-0.6,7.3c-14.7,0.6-29,2.3-42.9,5.1
			l-6.4-12.4c-2.3,0-4.9-0.4-6.6,0.2l6,13.9l-0.6,0.6c-10.7,3-21.1,6.8-31.4,11.1l-0.9-0.4c-6.6-7.3-13-15.2-18.4-23
			c-1.3-4.1-6-1.7-8.5-2.1c5.8,10.2,13.2,19.4,20.9,28.8c-6.4,3.8-12.8,7.9-19.4,10.9c-14.3-10.7-27.5-24.8-37.6-39.5
			c-2.8-0.4-4.7-0.2-7.7,0c17.1,26.7,43.7,49.9,71.5,63.8c0,0,0-0.2,0.2-0.2s0.6,0.4,0.2,0.6c18.8,9.2,38.8,15.6,60,18.6
			c73,9.6,142.8-21.6,183.1-82.8C403.6,297.4,400.4,297.4,398,297.6z M298.8,318.8l0.6-0.4c10.2,2.3,20.1,5.5,29,10
			c-7.7,8.5-17.3,16.2-26.5,22.4c-5.5,3.2-10.9,6.8-16.6,9.6l-10.2-4.5l0.6-1.7C284.7,342.9,292.2,331.1,298.8,318.8z M252.1,311.7
			c13.7,0.2,27.1,1.7,39.7,4.7l0.2,0.6c-6.6,12.6-14.9,24.8-24.1,36.3c-4.1,0.4-7.9-1.1-12-1.3l-4.1-0.4
			C251.6,337.8,251.2,325.6,252.1,311.7z M206.2,316c12.4-2.3,25.2-4.3,38.4-4.3l0.2,39.5c-4.9,1.1-10.5,1.1-15.2,2.3
			c-9.8-11.5-17.9-23.9-24.8-36.7L206.2,316z M167.8,328.6c9.4-4.5,19-7.7,29-10.2l1.1,0.2c6.8,12.8,15.4,25,23.9,37.1
			c-3.4,1.9-7.5,3-10.7,4.9c-15.8-7.7-30.7-18.6-43.3-31.4V328.6z M198.5,368.5c-20.1-5.1-38.6-14.1-55.7-26.2v-0.6
			c5.8-3.4,11.5-7.3,17.5-9.8c13.7,13.4,27.5,23.5,42.9,32.9C202.1,366.1,200.2,367.6,198.5,368.5z M286.9,371.5
			c-25.2,5.3-53.4,5.5-78.5-0.4c-0.4-1.1,1.3-1.5,1.9-2.1c22.2-14.3,56.6-14.3,78.3,1.1C289.2,371.5,287.3,371,286.9,371.5z
			 M309.7,365.1l-11.1,3.4c-1.9-0.9-3.6-2.3-5.3-3.8l0.4-0.6c15.2-9,29-19.6,42-32.4c6.4,2.6,12.6,6.2,18.4,10
			C340.8,352.3,325.3,359.1,309.7,365.1z"/>
	</g>
	<g>
		<path class="st0" d="M97.8,100.2c5.8-7.9,12.2-15.6,19.2-23c6.2-5.8,12-11.5,18.6-15.6c6.2,4.1,13,7.3,19,11.1
			c-7.5,9-14.9,18.1-20.5,28c1.7,0.6,4.7,0.4,7,0c6-8.5,12.4-17.3,20.1-25c10.2,3.8,20.3,7.7,30.7,10.5l0.9,0.9l-6,13.4
			c2.6,0.4,4.3,0.2,6.8,0c2.1-4.1,3.8-8.3,6.2-12.4c13.9,3,28.4,4.7,43.1,5.1c1.9,1.7,0.4,5.1,1.3,7.3h6.4c0.6-2.3-0.2-4.9,0.6-7
			c13.9-0.6,28.4-2.1,41.6-5.3l1.1,0.2l6.4,12.2c2.1,0,4.9,0.4,6.6-0.4l-6-13.4l0.4-0.4c10.9-2.8,21.1-7,31.6-11.1
			c7.5,7.7,14.3,16.9,20.5,25.6c2.6,0,5.1,0.2,7-0.4c-2.8-5.1-6.4-10.2-10.2-14.7c-3.2-4.5-6.4-8.3-10.5-12.6v-1.5l16.6-9.6l2.3-0.9
			c14.5,10.9,27.3,24.3,37.6,39.1c2.8,0,5.3,1.1,7.7-0.2C372.2,52.2,319.5,21.5,262.7,17l-0.2,0.4l-0.4-0.4
			c-6.4-0.6-14.3-0.9-21.1-0.2c-2.6-0.2-5.8,0-8.7,0.2c-57,4.5-109.7,33.7-142.3,83.4C92.4,100.2,95.4,101.3,97.8,100.2z
			 M196.4,79.7l-0.9,0.2c-9.8-2.6-19.2-5.5-28.4-9.6l0.4-1.5c13-12.4,26.9-22.6,42-30.5c3.6,1.5,7,2.6,10.7,4.3l-0.6,1.9
			C210.7,55.6,203.6,67.8,196.4,79.7z M243.7,85.9c-6.6,0.9-12.6-0.2-19.2-0.6c-6.4-0.9-14.5-1.7-20.9-3.8
			c6.8-12.8,14.9-25.2,24.8-36.7l15.2,2.1C244.2,59,243.7,73.1,243.7,85.9z M251,86.4c-0.4-12.4-0.2-26.2,0-39.1
			c4.7-0.6,10-1.5,14.7-2.1c9.2,11.7,18.4,23.7,24.5,36.5C277.5,84.7,264.4,86.4,251,86.4z M327,69.9c-9.4,4.1-18.8,7.7-29,9.8
			C290.5,67.4,282.6,55,273.4,43c3.4-1.9,7.5-3.2,10.9-5.1c15.6,7.7,30.5,18.8,43.1,31.2L327,69.9z M296.5,30
			c20.1,5.1,38.8,14.1,55.9,26.2l-0.4,0.9l-16.4,9.2h-1.3c-12.6-12.6-27.3-23.5-42.3-32.2C292.4,32.4,294.7,31.1,296.5,30z
			 M287.1,27.7v0.4c-20.7,14.9-54.2,16.4-76.2,2.6c-1.3-0.9-3.6-1.5-3.8-3C232.2,21.7,262.1,21.3,287.1,27.7z M141.9,56.5
			c14.9-10.9,31.6-19.2,49.3-24.8c0.6-0.6,1.3-1.5,2.1-1.5v0.4c1.9,0.4,3.4-1.7,4.9-0.2c1.5,1.3,3.2,2.1,4.3,3.2
			c-14.7,9.2-29.2,19.8-42.5,32.9c-6.4-2.3-12.4-5.8-18.1-9.8L141.9,56.5L141.9,56.5z"/>
	</g>
	<g>
		<path class="st0" d="M244,243.4c-22.4,6.2-46.5,1.5-62.7-15.4c-1.9-2.3-3-5.1-4.9-7.5l-32,0.2c-0.4,19-0.6,40.5,0,59.3l35.6-0.2
			l0.4-11.3c4.1,1.9,8.1,4.3,12.2,6.2c24.8,10.2,56.6,12.6,81.1,0c17.9-9.8,27.3-28.8,24.8-49.1c-2.6-19.8-21.6-37.8-41-42.7
			l-57.6-16.6l-4.3-2.1c-1.9-1.7-3.2-3.6-2.6-6.2c4.5-7.7,14.9-5.3,22.8-5.1c16.6,2.3,33.7,7.9,43.5,23c10.5,0,22.6,0.2,33.9-0.2
			c0.4-19.2-0.2-35.9-0.4-55.3c-10.7-0.2-23.7-0.2-34.6,0.2c-0.4,2.8,0.4,6.8-0.6,9.6l-10.9-5.8c-26.2-10.9-62.7-12.2-86.6,4.9
			c-15.4,11.1-20.3,31.4-16.2,49.1c3,16.9,19.2,29.2,34.8,35c21.1,7.5,43.3,12.8,64.7,20.1c2.1,0.9,4.9,3,4.5,5.5
			C247.8,241.3,245.7,242.6,244,243.4z"/>
	</g>
</g>
<g>
	<path class="st0" d="M33.3,488.4c0-3,0.4-7.5,1.1-11.5c0.9-4.7,4.1-10.9,12-19l6.2-6.4c4.1-4.5,6.2-6.6,6.2-13c0-6.2-2.3-8.1-6-8.1
		c-2.6,0-4.9,0.9-5.8,3.4c-1.3,3-0.9,6.4-1.1,9.6H34.2v-1.9c0-6-0.2-21.1,19.2-20.9c10.7,0,18.1,6.6,18.1,17.5
		c0,7.5-2.8,13.2-8.1,18.6l-9.8,10.2c-2.6,2.8-6.4,7-6.6,11.7h23.5v9.8L33.3,488.4L33.3,488.4z"/>
	<path class="st0" d="M78.4,422.1h38v9.2c-6,10.5-9.8,21.6-12.6,32.7c-2.1,8.1-3.6,16.4-4.1,24.8h-13c1.1-14.3,5.5-28,10.7-41.2
		c1.5-3.6,4.7-10.7,7.7-15.4H78.1v-10H78.4z"/>
	<path class="st0" d="M124.9,440c0-14.3,6.8-19.4,18.4-19.4c11.3,0,18.1,5.1,18.1,19.4v30.5c0,14.3-6.8,19.4-18.4,19.4
		c-11.3,0-18.1-5.1-18.1-19.4V440z M137.5,470.5c-0.4,7.5,2.3,9.6,5.5,9.6c3.4,0,6.2-1.9,5.8-9.6v-30.3c0.4-7.5-2.3-9.4-5.8-9.4
		c-3.2,0-5.8,1.9-5.5,9.4V470.5z"/>
	<path class="st0" d="M169.9,440c0-14.3,6.8-19.4,18.4-19.4c11.3,0,18.1,5.1,18.1,19.4v30.5c0,14.3-6.8,19.4-18.4,19.4
		c-11.3,0-18.1-5.1-18.1-19.4V440z M182.5,470.5c-0.4,7.5,2.3,9.6,5.5,9.6c3.4,0,6.2-1.9,5.8-9.6v-30.3c0.4-7.5-2.3-9.4-5.8-9.4
		c-3.2,0-5.8,1.9-5.5,9.4V470.5z"/>
	<path class="st0" d="M229.9,441.7h-15.2v-9c8.7,0,16-2.3,18.6-11.7h9.2v67.7h-12.6V441.7z"/>
	<path class="st0" d="M262.3,450.2v-11.7h12v12h-12V450.2z M262.3,488.4v-12h12v12H262.3z"/>
	<path class="st0" d="M283.7,488.4c0-3,0.4-7.5,1.1-11.5c0.9-4.7,4.1-10.9,12-19l6.2-6.4c4.1-4.5,6.2-6.6,6.2-13
		c0-6.2-2.3-8.1-6-8.1c-2.6,0-4.9,0.9-5.8,3.4c-1.3,3-0.9,6.4-1.1,9.6h-11.7v-1.9c0-6-0.2-21.1,19.2-20.9c10.7,0,18.1,6.6,18.1,17.5
		c0,7.5-2.8,13.2-8.1,18.6l-9.8,10.2c-2.6,2.8-6.4,7-6.6,11.7h23.5v9.8L283.7,488.4L283.7,488.4z"/>
	<path class="st0" d="M330.2,440c0-14.3,6.8-19.4,18.4-19.4c11.3,0,18.1,5.1,18.1,19.4v30.5c0,14.3-6.8,19.4-18.4,19.4
		c-11.3,0-18.1-5.1-18.1-19.4V440z M342.8,470.5c-0.4,7.5,2.3,9.6,5.5,9.6c3.4,0,6.2-1.9,5.8-9.6v-30.3c0.4-7.5-2.3-9.4-5.8-9.4
		c-3.2,0-5.8,1.9-5.5,9.4V470.5z"/>
	<path class="st0" d="M389.9,441.7h-15.2v-9c8.7,0,16-2.3,18.6-11.7h9.2v67.7h-12.6V441.7z"/>
	<path class="st0" d="M431.3,447.5c2.6-0.2,5.5,0,7.9-1.1c3.4-1.7,3.8-4.9,3.8-8.3c0-5.1-1.9-7.5-6-7.5c-2.6,0-5.8,1.1-6,5.3v4.7
		h-11.7c-0.6-12.6,4.9-20.1,17.7-20.1s18.4,6.6,18.4,17.3c0,5.8-2.3,13-8.7,13.9v0.2c6,0.6,10.5,6,10.2,16.4
		c0,13.2-5.8,21.3-19.6,21.3c-17.5,0-18.8-12.8-18.6-19.8v-4.1h11.7c0.2,5.5-0.9,13.9,7,13.9c7,0,6.8-6.4,6.8-12.8
		c0-2.1,0-5.5-1.5-7c-2.3-2.8-7.9-2.8-11.3-2.8v-9.6H431.3z"/>
</g>
</svg>
