<?xml version="1.0" encoding="utf-8"?>
<!-- Generator: Adobe Illustrator 26.3.1, SVG Export Plug-In . SVG Version: 6.00 Build 0)  -->
<svg version="1.1" id="Livello_1" xmlns="http://www.w3.org/2000/svg" xmlns:xlink="http://www.w3.org/1999/xlink" x="0px" y="0px"
	 viewBox="0 0 500 500" style="enable-background:new 0 0 500 500;" xml:space="preserve">
<style type="text/css">
	.st0{fill:#FFFFFF;}
</style>
<g>
	<g>
		<path class="st0" d="M473.5,160c-4.3-11.4-13.1-21.5-23.8-28.8C418.5,111.5,371,110,339,128c-17.4,9-29,26.6-32.6,44.7
			c-6.4,29.9-4.7,65.3,18.3,87.6c26.8,23.4,65.7,28.8,100.5,19.1c1.7-0.2,6.9-1.7,10.5-3.4l1.1-0.4c10.7-4.5,21-11.8,28.8-21.7
			C482.9,227.9,484.2,189,473.5,160z M417,227c-1.3,5.6-4.9,11.6-11,13.7c-9.7,4.3-22.6,3-31.4-1.9c-7.5-5.2-8.4-14-9.2-22.1
			c-0.6-16.1-1.9-33.3,2.6-48.1c3.7-9.2,13.3-11.6,22.3-12.2c9.2,0,18.5,1.5,24.3,9c3.7,5.4,3.4,12.5,4.1,18.9
			C418.1,197.4,419.4,213.3,417,227z"/>
	</g>
	<g>
		<path class="st0" d="M133.3,241.6c-7.9-0.4-16.8,0.2-24.5-0.6l0.2-82.5l0.4-0.6l23.6-0.2c0.2-13.3,0.4-27.7-0.2-39.9l-90.2-0.2
			l-14.8,0.2c-0.2,12.5-0.2,27.1,0,39.7c8.2,0.2,15.9,0,23.6,0.6v79.7l-0.2,3.2l-23.6,0.4c-0.4,13.1-0.4,25.8,0,38.9h105.4v-38.7
			H133.3z"/>
	</g>
	<g>
		<path class="st0" d="M399,297.9c-10.1,14.4-22.8,28.1-36.5,39.1c-0.4,0.6-1.9,0.4-2.4-0.2c-6-3.7-12.5-6.9-18.3-10.5
			c7.7-9.2,15-18.3,20.8-28.6h-7.5c-6,8.8-12.2,17.8-20.2,25.6c-10.5-4.3-20.2-7.9-30.9-10.7l-1.3-0.9c1.7-4.7,4.7-9.2,5.8-14h-6.4
			l-6.4,12.7c-14.2-3-29.6-4.7-44-5.6c-0.6-2.1,0.2-5.2-0.6-7.1h-6.2c-0.4,2.8,0.6,4.9-0.6,7.3c-14.8,0.6-29.2,2.4-43.2,5.2
			l-6.4-12.5c-2.4,0-4.9-0.4-6.7,0.2l6,14l-0.6,0.6c-10.7,3-21.3,6.9-31.6,11.2l-0.9-0.4c-6.7-7.3-13.1-15.2-18.5-23.2
			c-1.3-4.1-6-1.7-8.6-2.1c5.8,10.3,13.3,19.5,21,29c-6.4,3.9-12.9,7.9-19.5,11c-14.4-10.7-27.7-24.9-37.8-39.7
			c-2.8-0.4-4.7-0.2-7.7,0c17.2,26.8,44,50.3,71.9,64.2c0,0,0-0.2,0.2-0.2c0.2,0,0.6,0.4,0.2,0.6c18.9,9.2,39.1,15.7,60.3,18.7
			c73.4,9.7,143.7-21.7,184.3-83.3C404.5,297.7,401.3,297.7,399,297.9z M299.1,319.2l0.6-0.4c10.3,2.4,20.2,5.6,29.2,10.1
			c-7.7,8.6-17.4,16.3-26.6,22.6c-5.6,3.2-11,6.9-16.8,9.7l-10.3-4.5l0.6-1.7C284.9,343.4,292.4,331.6,299.1,319.2z M252.1,312.1
			c13.7,0.2,27.3,1.7,39.9,4.7l0.2,0.6c-6.7,12.7-15,24.9-24.3,36.5c-4.1,0.4-7.9-1.1-12-1.3l-4.1-0.4
			C251.6,338.3,251.2,326.1,252.1,312.1z M205.9,316.4c12.5-2.4,25.3-4.3,38.7-4.3l0.2,39.7c-4.9,1.1-10.5,1.1-15.2,2.4
			c-9.9-11.6-18-24.1-24.9-36.9L205.9,316.4z M167.2,329.1c9.4-4.5,19.1-7.7,29.2-10.3l1.1,0.2c6.9,12.9,15.5,25.1,24.1,37.4
			c-3.4,1.9-7.5,3-10.7,4.9c-15.9-7.7-30.9-18.7-43.6-31.6V329.1z M198.2,369.2c-20.2-5.2-38.9-14.2-56.1-26.4v-0.6
			c5.8-3.4,11.6-7.3,17.6-9.9c13.7,13.5,27.7,23.6,43.2,33.1C201.8,366.9,199.9,368.4,198.2,369.2z M287.1,372.2
			c-25.3,5.4-53.7,5.6-79-0.4c-0.4-1.1,1.3-1.5,1.9-2.1c22.3-14.4,56.9-14.4,78.8,1.1C289.4,372.2,287.5,371.8,287.1,372.2z
			 M310,365.8l-11.2,3.4c-1.9-0.9-3.7-2.4-5.4-3.9l0.4-0.6c15.2-9,29.2-19.8,42.3-32.6c6.4,2.6,12.7,6.2,18.5,10.1
			C341.4,352.9,325.7,359.8,310,365.8z"/>
	</g>
	<g>
		<path class="st0" d="M96.8,99.3c5.8-7.9,12.2-15.7,19.3-23.2c6.2-5.8,12-11.6,18.7-15.7c6.2,4.1,13.1,7.3,19.1,11.2
			c-7.5,9-15,18.3-20.6,28.1c1.7,0.6,4.7,0.4,7.1,0c6-8.6,12.5-17.4,20.2-25.1c10.3,3.9,20.4,7.7,30.9,10.5l0.9,0.9l-6,13.5
			c2.6,0.4,4.3,0.2,6.9,0c2.1-4.1,3.9-8.4,6.2-12.5c14,3,28.6,4.7,43.4,5.2c1.9,1.7,0.4,5.2,1.3,7.3h6.4c0.6-2.4-0.2-4.9,0.6-7.1
			c14-0.6,28.6-2.1,41.9-5.4l1.1,0.2l6.4,12.2c2.1,0,4.9,0.4,6.7-0.4l-6-13.5l0.4-0.4c11-2.8,21.3-7.1,31.8-11.2
			c7.5,7.7,14.4,17,20.6,25.8c2.6,0,5.2,0.2,7.1-0.4c-2.8-5.2-6.4-10.3-10.3-14.8c-3.2-4.5-6.4-8.4-10.5-12.7v-1.5l16.8-9.7l2.4-0.9
			c14.6,11,27.5,24.5,37.8,39.3c2.8,0,5.4,1.1,7.7-0.2c-32-47.9-85-78.8-142.2-83.3l-0.2,0.4l-0.4-0.4c-6.4-0.6-14.4-0.9-21.3-0.2
			c-2.6-0.2-5.8,0-8.8,0.2c-57.3,4.5-110.4,33.9-143.2,84C91.4,99.3,94.4,100.3,96.8,99.3z M196,78.6l-0.9,0.2
			c-9.9-2.6-19.3-5.6-28.6-9.7l0.4-1.5c13.1-12.5,27.1-22.8,42.3-30.7c3.7,1.5,7.1,2.6,10.7,4.3l-0.6,1.9
			C210.4,54.4,203.3,66.6,196,78.6z M243.7,84.9c-6.7,0.9-12.7-0.2-19.3-0.6c-6.4-0.9-14.6-1.7-21-3.9c6.9-12.9,15-25.3,24.9-36.9
			l15.2,2.1C244.1,57.8,243.7,72,243.7,84.9z M251,85.3c-0.4-12.5-0.2-26.4,0-39.3c4.7-0.6,10.1-1.5,14.8-2.1
			c9.2,11.8,18.5,23.8,24.7,36.7C277.6,83.6,264.5,85.3,251,85.3z M327.4,68.8c-9.4,4.1-18.9,7.7-29.2,9.9
			c-7.5-12.5-15.5-24.9-24.7-36.9c3.4-1.9,7.5-3.2,11-5.2c15.7,7.7,30.7,18.9,43.4,31.4L327.4,68.8z M296.7,28.6
			c20.2,5.2,39.1,14.2,56.3,26.4l-0.4,0.9L336,65.1h-1.3c-12.7-12.7-27.5-23.6-42.5-32.4C292.6,31,295,29.7,296.7,28.6z M287.3,26.2
			v0.4c-20.8,15-54.5,16.5-76.7,2.6c-1.3-0.9-3.7-1.5-3.9-3C232.1,20.2,262.1,19.8,287.3,26.2z M141.2,55.2
			c15-11,31.8-19.3,49.6-24.9c0.6-0.6,1.3-1.5,2.1-1.5v0.4c1.9,0.4,3.4-1.7,4.9-0.2c1.5,1.3,3.2,2.1,4.3,3.2
			c-14.8,9.2-29.4,20-42.7,33.1c-6.4-2.4-12.5-5.8-18.3-9.9L141.2,55.2L141.2,55.2z"/>
	</g>
	<g>
		<path class="st0" d="M243.9,243.4c-22.6,6.2-46.8,1.5-63.1-15.5c-1.9-2.4-3-5.2-4.9-7.5l-32.2,0.2c-0.4,19.1-0.6,40.8,0,59.7
			l35.9-0.2l0.4-11.4c4.1,1.9,8.2,4.3,12.2,6.2c24.9,10.3,56.9,12.7,81.6,0c18-9.9,27.5-29,24.9-49.4c-2.6-20-21.7-38-41.2-43
			l-58-16.8l-4.3-2.1c-1.9-1.7-3.2-3.7-2.6-6.2c4.5-7.7,15-5.4,23-5.2c16.8,2.4,33.9,7.9,43.8,23.2c10.5,0,22.8,0.2,34.1-0.2
			c0.4-19.3-0.2-36.1-0.4-55.6c-10.7-0.2-23.8-0.2-34.8,0.2c-0.4,2.8,0.4,6.9-0.6,9.7l-11-5.8c-26.4-11-63.1-12.2-87.2,4.9
			c-15.5,11.2-20.4,31.6-16.3,49.4c3,17,19.3,29.4,35,35.2c21.3,7.5,43.6,12.9,65.1,20.2c2.1,0.9,4.9,3,4.5,5.6
			C247.8,241.2,245.6,242.5,243.9,243.4z"/>
	</g>
</g>
<g>
	<path class="st0" d="M93.3,463.9c0,21.7-6.2,27.5-19.5,27.5c-9.9,0-17.2-4.5-16.8-15.2h11.8c0,2.4,0.4,5.6,5.6,5.4
		c7.1,0,6.4-8.6,6.7-12.7v-4.3c-2.1,2.1-4.1,4.5-9.9,4.5c-10.7,0-15.5-7.3-15.5-21.3c0-17,4.1-25.8,18.9-25.8
		c15.2,0,19.1,9.9,18.9,25.8v16.1H93.3z M74,431.7c-6.7,0-5.8,6.2-5.8,15c0,4.9-0.6,12.2,6.2,12.2c6.2,0,6.2-6.7,6.2-12.2
		C80.7,438.2,80.9,431.1,74,431.7z"/>
	<path class="st0" d="M101.3,441.2c0-14.4,6.9-19.5,18.5-19.5c11.4,0,18.3,5.2,18.3,19.5v30.7c0,14.4-6.9,19.5-18.5,19.5
		c-11.4,0-18.3-5.2-18.3-19.5V441.2z M114,471.9c-0.4,7.5,2.4,9.7,5.6,9.7c3.4,0,6.2-1.9,5.8-9.7v-30.5c0.4-7.5-2.4-9.4-5.8-9.4
		c-3.2,0-5.8,1.9-5.6,9.4V471.9z"/>
	<path class="st0" d="M146.6,441.2c0-14.4,6.9-19.5,18.5-19.5c11.4,0,18.3,5.2,18.3,19.5v30.7c0,14.4-6.9,19.5-18.5,19.5
		c-11.4,0-18.3-5.2-18.3-19.5V441.2z M159.5,471.9c-0.4,7.5,2.4,9.7,5.6,9.7c3.4,0,6.2-1.9,5.8-9.7v-30.5c0.4-7.5-2.4-9.4-5.8-9.4
		c-3.2,0-5.8,1.9-5.6,9.4V471.9z"/>
	<path class="st0" d="M207,442.9h-15.2v-9c8.8,0,16.1-2.4,18.7-11.8h9.2v68.1H207V442.9z"/>
	<path class="st0" d="M239.6,451.5v-11.8h12v12h-12V451.5z M239.6,489.9v-12h12v12H239.6z"/>
	<path class="st0" d="M261.1,489.9c0-3,0.4-7.5,1.1-11.6c0.9-4.7,4.1-11,12-19.1l6.2-6.4c4.1-4.5,6.2-6.7,6.2-13.1
		c0-6.2-2.4-8.2-6-8.2c-2.6,0-4.9,0.9-5.8,3.4c-1.3,3-0.9,6.4-1.1,9.7h-11.8v-1.9c0-6-0.2-21.3,19.3-21c10.7,0,18.3,6.7,18.3,17.6
		c0,7.5-2.8,13.3-8.2,18.7l-9.9,10.3c-2.6,2.8-6.4,7.1-6.7,11.8h23.6v9.9L261.1,489.9L261.1,489.9z"/>
	<path class="st0" d="M307.9,441.2c0-14.4,6.9-19.5,18.5-19.5c11.4,0,18.3,5.2,18.3,19.5v30.7c0,14.4-6.9,19.5-18.5,19.5
		c-11.4,0-18.3-5.2-18.3-19.5V441.2z M320.6,471.9c-0.4,7.5,2.4,9.7,5.6,9.7c3.4,0,6.2-1.9,5.8-9.7v-30.5c0.4-7.5-2.4-9.4-5.8-9.4
		c-3.2,0-5.8,1.9-5.6,9.4V471.9z"/>
	<path class="st0" d="M368.2,442.9H353v-9c8.8,0,16.1-2.4,18.7-11.8h9.2v68.1h-12.7V442.9z"/>
	<path class="st0" d="M398.1,458.8l1.7-35.7h32.6v9.9h-23l-0.9,14.6c3-3,5.6-3.9,9.9-3.9c14.8,0,17,12.7,17,23.4
		c0,15.5-4.5,24.1-18.7,24.1c-15.5,0-19.5-7.1-19.3-22.8h11.8c0.2,4.9-0.6,12.5,6.4,12.9c7.5,0.4,7.1-7.5,7.3-14.2
		c0.4-11-2.6-13.3-7.3-13.3c-3.2,0-6,2.1-6.4,4.9L398.1,458.8L398.1,458.8z"/>
</g>
</svg>
