<?xml version="1.0" encoding="utf-8"?>
<!-- Generator: Adobe Illustrator 27.0.0, SVG Export Plug-In . SVG Version: 6.00 Build 0)  -->
<svg version="1.1" id="Livello_1" xmlns="http://www.w3.org/2000/svg" xmlns:xlink="http://www.w3.org/1999/xlink" x="0px" y="0px"
	 viewBox="0 0 405 120" style="enable-background:new 0 0 405 120;" xml:space="preserve">
<style type="text/css">
	.st0{fill:#FFFFFF;}
	.st1{fill-rule:evenodd;clip-rule:evenodd;fill:#FFFFFF;}
</style>
<g>
	<path class="st0" d="M110.2,56.5c-1.9-1.1-4.1-1.7-6.2-1.7c-7.3,0-13.2,5.7-13.2,13c0,7.2,5.8,12.8,12.9,12.8
		c2.2,0,4.6-0.6,6.5-1.7v-3.6c-1.8,1.6-4.2,2.6-6.6,2.6c-5.5,0-9.7-4.6-9.7-10.1c0-5.5,4.2-10.1,9.8-10.1c2.3,0,4.8,0.9,6.5,2.4
		V56.5L110.2,56.5z"/>
	<path class="st1" d="M125.1,54.8c-7.1,0-13,5.8-13,12.9c0,7.4,5.8,12.9,13,12.9c7.2,0,13-5.6,13-12.9
		C138.1,60.6,132.2,54.8,125.1,54.8L125.1,54.8z M125.1,77.7c-5.4,0-9.9-4.4-9.9-10c0-5.5,4.1-10,9.9-10c5.8,0,9.9,4.6,9.9,10
		C135,73.4,130.5,77.7,125.1,77.7L125.1,77.7z"/>
	<polygon class="st0" points="140.8,80.1 143.9,80.1 143.9,61.6 162.5,81.1 162.5,55.3 159.4,55.3 159.4,73.6 140.8,54.1 
		140.8,80.1 	"/>
	<polygon class="st0" points="178.8,58.1 178.8,55.3 166.8,55.3 166.8,80.1 169.9,80.1 169.9,67.9 178.5,67.9 178.5,65.1 
		169.9,65.1 169.9,58.1 178.8,58.1 	"/>
	<polygon class="st0" points="185.4,55.3 182.3,55.3 182.3,80.1 185.4,80.1 185.4,55.3 	"/>
	<polygon class="st0" points="189.7,80.1 192.8,80.1 192.8,61.6 211.4,81.1 211.4,55.3 208.3,55.3 208.3,73.6 189.7,54.1 
		189.7,80.1 	"/>
	<path class="st1" d="M215.6,80.1h5c7.8,0,14-4.1,14-12.5c0-8.2-6.3-12.3-13.9-12.3h-5.1V80.1L215.6,80.1z M218.6,58.1h1.1
		c6.3,0,11.8,2.3,11.8,9.6c0,7.2-5.5,9.6-11.8,9.6h-1.1V58.1L218.6,58.1z"/>
	<path class="st0" d="M237.2,55.3V71c0,5.5,3.4,9.6,9.1,9.6c5.7,0,9.1-4.2,9.1-9.6V55.3h-3.1v14.6c0,4-1.2,7.8-6,7.8
		c-4.8,0-6-3.7-6-7.8V55.3H237.2L237.2,55.3z"/>
	<path class="st0" d="M273.1,58.5c-1.3-2.4-3.6-3.7-6.4-3.7c-3.7,0-7.3,2.4-7.3,6.4c0,3.4,2.6,5.1,5.4,6.3l1.7,0.7
		c2.1,0.9,4.3,2,4.3,4.7c0,2.6-1.9,4.8-4.6,4.8c-2.7,0-4.8-2-4.8-4.7l-3.1,0.7c0.5,4,3.6,6.9,7.7,6.9c4.4,0,7.9-3.2,7.9-7.7
		c0-4.1-2.6-6.1-6.1-7.5l-1.8-0.7c-1.5-0.6-3.4-1.6-3.4-3.5c0-2.2,2.2-3.5,4.1-3.5c1.9,0,3.1,0.8,4,2.3L273.1,58.5L273.1,58.5z"/>
	<polygon class="st0" points="283.9,58.1 289.8,58.1 289.8,55.3 275,55.3 275,58.1 280.9,58.1 280.9,80.1 283.9,80.1 283.9,58.1 	
		"/>
	<path class="st1" d="M299.8,69.3c3.6-0.4,5.9-3.4,5.9-6.9c0-2.4-1.2-4.7-3.3-5.9c-2-1.1-4.3-1.1-6.5-1.1h-3.7v24.8h3.1V69.6h1.3
		l7.3,10.5h3.7L299.8,69.3L299.8,69.3z M295.3,58.1h0.8c3.1,0,6.7,0.6,6.7,4.4c0,3.9-3.4,4.5-6.6,4.5h-1V58.1L295.3,58.1z"/>
	<polygon class="st0" points="313.1,55.3 310,55.3 310,80.1 313.1,80.1 313.1,55.3 	"/>
	<path class="st1" d="M332.6,73.9l2.8,6.2h3.3l-11.8-25.8l-11.8,25.8h3.3l2.8-6.2H332.6L332.6,73.9z M331.3,71.1h-8.8l4.4-10
		L331.3,71.1L331.3,71.1z"/>
	<path class="st1" d="M94,94.6h0.7c2.3,0,4.3,0.5,4.3,3.3c0,2.9-1.9,3.4-4.3,3.4H94V94.6L94,94.6z M94,103.3h1.5
		c2.2,0,5.1,0.6,5.1,3.4c0,2.9-2.4,3.5-4.7,3.5H94V103.3L94,103.3z M91.5,112.5h4.7c3.5,0,7-1.6,7-5.6c0-2.3-1.7-4.7-4-5.1v-0.1
		c1.4-0.6,2.2-2.3,2.2-3.8c0-4.5-3.6-5.5-7.4-5.5h-2.5V112.5L91.5,112.5z"/>
	<path class="st1" d="M111.1,110.8c-2.5,0-3.9-2.2-3.9-4.5c0-2.3,1.5-4.5,3.9-4.5c2.6,0,4.1,2.1,4.1,4.5
		C115.2,108.7,113.7,110.8,111.1,110.8L111.1,110.8z M117.4,100H115v2.1H115c-1-1.5-2.5-2.5-4.3-2.5c-3.6,0-5.9,3.1-5.9,6.5
		c0,3.6,2.2,6.7,6,6.7c1.8,0,3.3-1,4.2-2.4h0.1v1.9h2.4V100L117.4,100z"/>
	<path class="st0" d="M123.1,100h-2.4v12.5h2.4v-6.1c0-2,0.3-4.4,2.9-4.4c0.6,0,1,0.1,1.5,0.5l1.1-2.2c-0.6-0.4-1.3-0.6-2-0.6
		c-1.6,0-2.8,0.9-3.4,2.4h-0.1V100L123.1,100z"/>
	<path class="st1" d="M132.8,100h-2.4v12.5h2.4V100L132.8,100z M131.6,92.6c-0.9,0-1.7,0.7-1.7,1.7c0,0.9,0.7,1.6,1.7,1.6
		c0.9,0,1.7-0.7,1.7-1.6C133.3,93.4,132.6,92.6,131.6,92.6L131.6,92.6z"/>
	<path class="st1" d="M155.4,106.6v-0.4c0-3.7-1.9-6.6-5.8-6.6c-4,0-6.1,2.9-6.1,6.7c0,3.7,2.3,6.6,6.1,6.6c2.4,0,4.6-1.3,5.8-3.4
		l-2-1.1c-0.9,1.5-1.9,2.4-3.7,2.4c-2.3,0-3.7-2-3.8-4.1H155.4L155.4,106.6z M146,104.8c0.3-1.8,1.7-3.1,3.5-3.1
		c1.9,0,3.1,1.3,3.4,3.1H146L146,104.8z"/>
	<path class="st1" d="M167.7,94.6h0.7c2.3,0,4.3,0.5,4.3,3.3c0,2.9-1.9,3.4-4.3,3.4h-0.6V94.6L167.7,94.6z M167.7,103.3h1.5
		c2.2,0,5.1,0.6,5.1,3.4c0,2.9-2.4,3.5-4.7,3.5h-1.9V103.3L167.7,103.3z M165.2,112.5h4.7c3.5,0,7-1.6,7-5.6c0-2.3-1.7-4.7-4-5.1
		v-0.1c1.4-0.6,2.2-2.3,2.2-3.8c0-4.5-3.6-5.5-7.4-5.5h-2.5V112.5L165.2,112.5z"/>
	<path class="st1" d="M184.8,110.8c-2.5,0-3.9-2.2-3.9-4.5c0-2.3,1.5-4.5,3.9-4.5c2.6,0,4.1,2.1,4.1,4.5
		C188.8,108.7,187.4,110.8,184.8,110.8L184.8,110.8z M191.1,100h-2.4v2.1h-0.1c-1-1.5-2.5-2.5-4.3-2.5c-3.6,0-5.9,3.1-5.9,6.5
		c0,3.6,2.2,6.7,6,6.7c1.8,0,3.3-1,4.2-2.4h0.1v1.9h2.4V100L191.1,100z"/>
	<path class="st0" d="M196.8,100h-2.4v12.5h2.4v-6.1c0-2,0.3-4.4,2.9-4.4c0.6,0,1,0.1,1.5,0.5l1.1-2.2c-0.6-0.4-1.3-0.6-2-0.6
		c-1.6,0-2.8,0.9-3.4,2.4h-0.1V100L196.8,100z"/>
	<polygon class="st0" points="206.1,89.3 203.7,89.3 203.7,112.5 206.1,112.5 206.1,89.3 	"/>
	<path class="st1" d="M220.4,106.6v-0.4c0-3.7-1.9-6.6-5.8-6.6c-4,0-6.1,2.9-6.1,6.7c0,3.7,2.3,6.6,6.1,6.6c2.4,0,4.6-1.3,5.8-3.4
		l-2-1.1c-0.9,1.5-1.9,2.4-3.7,2.4c-2.3,0-3.7-2-3.8-4.1H220.4L220.4,106.6z M211.1,104.8c0.3-1.8,1.7-3.1,3.5-3.1
		c1.9,0,3.1,1.3,3.4,3.1H211.1L211.1,104.8z"/>
	<polygon class="st0" points="225.2,102.2 227.6,102.2 227.6,100 225.2,100 225.2,95.2 222.8,95.2 222.8,100 221.5,100 221.5,102.2 
		222.8,102.2 222.8,112.5 225.2,112.5 225.2,102.2 	"/>
	<polygon class="st0" points="231.6,102.2 234,102.2 234,100 231.6,100 231.6,95.2 229.2,95.2 229.2,100 227.9,100 227.9,102.2 
		229.2,102.2 229.2,112.5 231.6,112.5 231.6,102.2 	"/>
	<path class="st1" d="M240.7,110.8c-2.5,0-3.9-2.2-3.9-4.5c0-2.3,1.5-4.5,3.9-4.5c2.6,0,4.1,2.1,4.1,4.5
		C244.7,108.7,243.3,110.8,240.7,110.8L240.7,110.8z M247,100h-2.4v2.1h-0.1c-1-1.5-2.5-2.5-4.3-2.5c-3.6,0-5.9,3.1-5.9,6.5
		c0,3.6,2.2,6.7,6,6.7c1.8,0,3.3-1,4.2-2.4h0.1v1.9h2.4V100L247,100z"/>
	<polygon class="st0" points="250,102.9 250,104.9 255.8,104.9 255.8,102.9 250,102.9 	"/>
	<path class="st1" d="M271.3,107.4l2.3,5h2.7l-9.6-21l-9.6,21h2.7l2.3-5H271.3L271.3,107.4z M270.3,105.1h-7.1l3.6-8.1L270.3,105.1
		L270.3,105.1z"/>
	<path class="st0" d="M280.1,100h-2.4v12.5h2.4v-5.7c0-2.3,0-5,3.1-5c2.5,0,2.7,1.4,2.7,3.6v7.1h2.4V105c0-3-0.9-5.4-4.4-5.4
		c-1.5,0-3,0.7-3.8,2.1h-0.1V100L280.1,100z"/>
	<path class="st1" d="M297.1,110.8c-2.5,0-3.9-2.2-3.9-4.5c0-2.3,1.5-4.5,3.9-4.5c2.6,0,4.1,2.1,4.1,4.5
		C301.1,108.7,299.7,110.8,297.1,110.8L297.1,110.8z M301,112.5h2.4V89.3H301v12.8h-0.1c-1-1.5-2.5-2.5-4.3-2.5
		c-3.6,0-5.9,3.1-5.9,6.5c0,3.6,2.1,6.7,6,6.7c1.8,0,3.3-1,4.2-2.4h0.1V112.5L301,112.5z"/>
	<path class="st0" d="M309.1,100h-2.4v12.5h2.4v-6.1c0-2,0.3-4.4,2.9-4.4c0.6,0,1,0.1,1.5,0.5l1.1-2.2c-0.6-0.4-1.3-0.6-2-0.6
		c-1.6,0-2.8,0.9-3.4,2.4h-0.1V100L309.1,100z"/>
	<path class="st1" d="M318.8,100h-2.4v12.5h2.4V100L318.8,100z M317.6,92.6c-0.9,0-1.7,0.7-1.7,1.7c0,0.9,0.7,1.6,1.7,1.6
		c0.9,0,1.7-0.7,1.7-1.6C319.3,93.4,318.5,92.6,317.6,92.6L317.6,92.6z"/>
	<path class="st1" d="M328,110.8c-2.5,0-3.9-2.2-3.9-4.5c0-2.3,1.5-4.5,3.9-4.5c2.6,0,4.1,2.1,4.1,4.5
		C332.1,108.7,330.6,110.8,328,110.8L328,110.8z M334.3,100h-2.4v2.1h-0.1c-1-1.5-2.5-2.5-4.3-2.5c-3.6,0-5.9,3.1-5.9,6.5
		c0,3.6,2.2,6.7,6,6.7c1.8,0,3.3-1,4.2-2.4h0.1v1.9h2.4V100L334.3,100z"/>
	<polygon class="st0" points="337.3,102.9 337.3,104.9 343.2,104.9 343.2,102.9 337.3,102.9 	"/>
	<polygon class="st0" points="352,94.7 356.8,94.7 356.8,92.4 344.7,92.4 344.7,94.7 349.5,94.7 349.5,112.5 352,112.5 352,94.7 	
		"/>
	<path class="st0" d="M361,100h-2.4v12.5h2.4v-6.1c0-2,0.3-4.4,2.9-4.4c0.6,0,1,0.1,1.5,0.5l1.1-2.2c-0.6-0.4-1.3-0.6-2-0.6
		c-1.6,0-2.8,0.9-3.4,2.4H361V100L361,100z"/>
	<path class="st1" d="M373.2,110.8c-2.5,0-3.9-2.2-3.9-4.5c0-2.3,1.5-4.5,3.9-4.5c2.6,0,4.1,2.1,4.1,4.5
		C377.3,108.7,375.8,110.8,373.2,110.8L373.2,110.8z M379.5,100h-2.4v2.1h-0.1c-1-1.5-2.5-2.5-4.3-2.5c-3.6,0-5.9,3.1-5.9,6.5
		c0,3.6,2.2,6.7,6,6.7c1.8,0,3.3-1,4.2-2.4h0.1v1.9h2.4V100L379.5,100z"/>
	<path class="st0" d="M385.1,100h-2.4v12.5h2.4v-5.7c0-2.3,0-5,3.1-5c2.5,0,2.7,1.4,2.7,3.6v7.1h2.4V105c0-3-0.9-5.4-4.4-5.4
		c-1.5,0-3,0.7-3.8,2.1h-0.1V100L385.1,100z"/>
	<path class="st1" d="M399.5,100h-2.4v12.5h2.4V100L399.5,100z M398.3,92.6c-0.9,0-1.7,0.7-1.7,1.7c0,0.9,0.7,1.6,1.7,1.6
		s1.7-0.7,1.7-1.6C400,93.4,399.3,92.6,398.3,92.6L398.3,92.6z"/>
	<path class="st1" d="M11.8,72.7c0.3,1.4,0.6,2.8,0.9,4.1l0.1,0.1c1.3-1.4,2.2-2.8,2.9-4.2l2.4,0c-1.3,3-3.5,6.2-6.2,8.1h-0.5
		c-0.7-2.7-1.3-5.4-2-8.1L11.8,72.7L11.8,72.7z M28,72.7c-0.8,1.5-1.3,3-1.4,4.4c0,0.2-0.3,0.4-0.3,0.7V80H24v-2
		c0-1.3,0.6-3.3,1.5-5.3L28,72.7L28,72.7z M39,72.7c-2.9,0.8-5.4,3.2-5.3,7.3h-2.7v-1.1c0-1.9,1.9-5.3,2.6-6.1c0,0,0.1-0.1,0.1-0.1
		L39,72.7L39,72.7z M48.3,72.7c1.7,1.7,2.8,3.9,2.8,6.3v1h-2.6c0.3-3.7-2.3-6.5-5.3-7.3L48.3,72.7L48.3,72.7z M57.1,72.7
		c0.7,1.8,1.1,3.6,1.1,5.6V80h-2.3v-2.4c0-0.3-0.4-1.7-0.7-2.6c-0.2-0.8-0.5-1.6-0.9-2.3L57.1,72.7L57.1,72.7z M66.5,72.7
		c0.8,1.7,1.8,3.2,2.8,4.2c0.4-1.4,0.7-2.8,1.1-4.2l2.3,0c-0.7,2.7-1.3,5.4-1.8,8.1h-0.5c-0.8,0-3.8-3.5-4.4-4.5
		c-0.7-1.1-1.2-2.3-1.7-3.6L66.5,72.7L66.5,72.7z"/>
	<path class="st1" d="M9.8,64.5c0.7,2.8,1.4,5.5,2,8.1l-2.3,0c-0.5-2.1-1-4.1-1.5-6.1c-0.1-0.4-0.3-1.1-0.5-2L9.8,64.5L9.8,64.5z
		 M19.5,64.5c0.4,1.2,0.8,2.3,1.1,3.5l0.1,0.1c0.9-1.1,1.8-2.3,2.8-3.6c0,0,0,0,0,0l2,0c-0.1,1.2-3.5,5.5-3.7,5.6
		c-0.3,0.1-0.8,0.3-1.1,0.3c-0.7,0-0.9-0.3-1.6-1.1c-0.2,1-0.6,2.2-1.1,3.4l-2.4,0c0.9-1.9,1.2-3.8,1.2-5.7c0-0.6-0.1-1.5-0.3-2.4
		L19.5,64.5L19.5,64.5z M49.7,64.5c3.4,1.9,6,4.8,7.4,8.1l-2.8,0c-2.3-4.3-7.4-7.8-11.6-7.7c0,0,0-0.2-0.1-0.2h-3
		c-0.8,0-5.5,1.8-5.9,2c-2.4,1.2-4.3,3.4-5.6,5.8l-2.5,0c1.5-3.3,4-6.7,6.4-7.8c0.2-0.1,0.4-0.2,0.6-0.3L49.7,64.5L49.7,64.5z
		 M58.7,64.5c0.1,0.3,1.6,2.2,2.6,3.5c0.1,0,0.2-0.1,0.3-0.2c0.4-1.1,0.7-2.2,1.1-3.4l2.9,0c-0.2,0.8-0.3,1.4-0.3,1.7v1.5
		c0,1.3,0.5,3.2,1.3,5l-2.3,0c-0.4-1.2-0.8-2.4-1.2-3.5c-0.7,0.6-0.8,1.2-1.6,1.2c-1.7,0-4.6-4.7-4.8-5.9L58.7,64.5L58.7,64.5z
		 M74.8,64.5c-0.7,2.7-1.4,5.4-2.1,8.1l-2.3,0c0.7-2.7,1.3-5.4,1.9-8.1L74.8,64.5L74.8,64.5z M33.8,72.7c1.6-1.7,5.4-3.1,7.4-3.1
		c2.6,0,5.2,1.2,7.1,3.1l-5.1,0c-0.7-0.2-1.4-0.3-2-0.3c-0.7,0-1.4,0.1-2.1,0.3L33.8,72.7L33.8,72.7z"/>
	<path class="st1" d="M2.4,32c0.2,1.7,0.5,3.5,0.6,4.2c0.5,2.6,0.9,5.2,1.5,7.7c1.5,6.6,3.5,13.9,5.2,20.7l-2.3,0
		C5.7,57.8,0.5,39,0.2,32H2.4L2.4,32z M12,32l0,0.4c1,10.5,4,21.4,7.5,32.1l-2.8,0c-0.8-5.1-3.6-14-4-15.6c-1.5-5.5-2.3-11.5-3-16.9
		L12,32L12,32z M21.9,32l0.1,1.9c0.8,7.7,2.4,15.9,4.9,23.6l0.1,0.1c1-0.8,1.2-1.2,2.1-1.2c1.2,0,1.4,0.9,2.4,1.9
		c0.1-0.2,0.1-0.3,0.1-0.5c0-0.3-0.2-2.3-0.4-3.4c-0.4-3.2-0.6-3.5-1-10.2L30,32h2.4v9.8l0.1,0.1c1.4-1.2,2.4-1.5,3.7-1.5
		c1.2,0,2.5,0.3,3.5,1.4c0.1,0,0.1-0.1,0.2-0.2V32h2.6v9.5l0.1,0.1c1.5-1,2.1-1.1,3.5-1.1c1.2,0,2.2,0.1,3.6,1.4
		c0.2-0.4,0.4-1,0.4-1.2V32h2.3l-0.1,9.7c0,0.2-0.2,0.5-0.2,0.7c-0.1,3.6-0.2,4.6-0.4,5.5L50.6,58c0,0.2,0,0.3,0.1,0.4
		c1.5-1.2,0.7-2.1,2.4-2.1c1,0,0.9,0.4,1.9,1.2c3.1-7.9,4.2-15.8,5.2-23.9l0.1-1.7h2.3c0,0.2,0,0.4,0,0.6
		c-0.7,8.9-2.3,17.5-5.4,26.5c1.4,1.1,2.7,1.6,2.7,2.9c0,0.9-1.3,2.2-1.3,2.6c0,0,0,0,0,0l-2.1,0c0-0.1,0-0.1,0-0.1
		c0-1.3,1.2-2.1,1.2-2.5c0-0.3-4.2-3.1-4.2-3.1c-1,0-1.2,1.9-2.9,1.9c-1.2,0-5-1.7-5.9-1.9c-0.5-1-0.8-2.1-0.8-3.1
		c-0.1-0.1-0.2-0.3-0.4-0.3h-4.8c-0.7,0.9,0,2.3-1.2,3.3c-0.2,0.2-4.7,1.9-5.8,1.9c-1.1,0-2.5-1.9-2.9-1.9c-0.2,0-4.3,3-4.3,3.1
		c0,0.4,1.1,1.6,1.1,2.6c0,0,0,0,0,0l-2,0c-0.8-1.4-1.2-1.5-1.2-2.6c0-1.8,2.6-2,2.6-2.9c0-0.3-0.4-1.6-0.6-2.2
		c-1-2.9-1.8-6.1-2.3-9c-0.5-3-1.3-5.9-1.7-8.9c-0.2-1.8-0.3-4.2-0.7-6.1l0-0.8H21.9L21.9,32z M72.5,32c-0.7,7.2-2.2,14.4-4.3,21.6
		c-0.5,1.7-2.1,7.9-2.8,10.9l-2.9,0C66,53.9,69,43,70.2,32.3l0-0.3H72.5L72.5,32z M81.9,32c-1.3,10.8-4.3,21.7-7.1,32.5l-2.4,0
		c0.7-2.9,1.4-5.8,2.1-8.7c0.7-2.8,4.6-16.9,5.3-23.9L81.9,32L81.9,32z M32.5,64.5c3.1-1.4,5.7-2.2,8.7-2.2c3.1,0,6,0.8,8.5,2.2
		H32.5L32.5,64.5z M42.3,46.1l0,7.5h2.5c1.2,0,1.3,2.5,1.3,3.4c0.6,0.3,1.4,0.6,2.1,1c0.7-2.8,0.8-4.6,1.1-9.1
		c0.1-1.3,0.1-1.8,0.1-2.1c0-1.5-0.9-3.9-2.9-3.9h-1.5C43.6,42.9,42.3,45.2,42.3,46.1L42.3,46.1z M32.6,46.3v1.5
		c0,0.3,0.2,0.4,0.2,0.5l0.8,9.5l0.1,0.1c0.8-0.3,1.6-0.7,2.3-1c0.3-1.2-0.4-2.4,1.2-3.4h2.7l0-6.9c0-1.7-1.2-3.7-3.2-3.7h-1.4
		C33.8,42.9,32.6,45.4,32.6,46.3L32.6,46.3z"/>
	<path class="st1" d="M0.2,32c0-0.2,0-0.3,0-0.5v-1.6c0-0.3-0.2,0.1-0.2-0.1v-10c0-2.1,1-6.2,1.6-7.9C3.3,6.8,6.4,3.8,11,3.8
		c1.2,0,3.3,0.3,4.3,1c4.3,3,8.5,7.9,12.1,11.8c0.3,0.3,2.1,2,2.6,2c0.3,0,1.2-1,1.3-1.3c1.2-4.4,2.5-9,4.4-13.3
		c0.4-1,1.2-2.4,2.2-3.3C38.9-0.2,40.7,0,42,0c1.6,0,2.8-0.2,4.4,1.5h3.2c1.2,0,1.3,2.9,1.3,3c0,0.2,0,1.1-0.5,1.3
		c-0.1-0.5-0.3-0.9-0.6-1.3c-1.8,0.1-2.4,0.1-3,0.1c-0.1,0-0.1,0-0.1,0.2c0,0.3,0.7,1.5,0.9,2.2c0.8,2.4,1.3,5.1,2.1,7.6
		c0.2,0.8,0.3,4,2.2,4c0.6,0,1.1-0.1,1.9-0.9c3.7-3.8,7.6-8.9,12-12.3c1.7-1.4,3.6-1.7,5.3-1.7c9.1,0,10.7,11.9,11.1,17.8L82,30.9
		c0,0.4-0.1,0.7-0.1,1.1l-2.1,0c0.1-0.8,0.1-1.4,0.1-2v-4.7c0-1.8-1.4-6.2-4.3-6.2h-2c-0.4,0-1.4,1-1.4,1.1c0,0.3,0.3,2,0.5,3
		l-0.1,8.3c0,0.2,0,0.3,0,0.5l-2.3,0l0.1-8.3c-0.1-0.5,0.2-1.2-0.3-1.7c-0.6,2.5-3.4,3.9-5.4,3.9c-0.3,0-1.2-0.2-1.8-0.3
		c-0.1,0.6,0.1,2.6-0.2,6.4l-2.3,0l0.2-4.6c0-0.1-0.1-0.2-0.1-0.3c-0.5,0.6-1.4,1.7-2,2c-0.8,0.4-2.6,0.8-2.9,0.8
		c-0.5,0-2.5-0.7-3-1.2c-0.1,0.1-0.1,0.2-0.1,0.3l0,3.1H50v-5.2c0-0.3-0.2,0.1-0.2-0.1v-2.1c0-1-0.7-4.7-1-5.8C48.2,20,46,21,45,21
		c-0.3,0-1.5-0.4-2.4-0.7c-0.1,0-0.1,0.1-0.2,0.2V32h-2.6V20.3c0,0-0.1-0.1-0.2-0.1c-0.3,0-2,0.7-2.3,0.7c-1.3,0-3-1.1-3.8-2.2
		c-0.3,1.2-1.1,4.3-1.1,5.7V32H30l-0.1-3.3l-0.1-0.1c-0.2,0.2-0.5,0.5-0.8,0.6c-0.8,0.4-2.1,0.6-2.4,0.6c-0.3,0-1.9-0.4-2.8-0.8
		c-0.4-0.1-1.7-1.7-2.1-2c0,0-0.1,0.1-0.1,0.2v2.8c0,0.3,0.2,0.4,0.2,0.5l0,1.4h-2.4l-0.1-6.3l-0.2-0.2c-0.6,0.1-1.4,0.3-1.7,0.3
		c-2.2,0-4.3-1.3-5.4-3.7c-0.1,0.4-0.1,0.8-0.2,1.1L12,32H9.7c0-0.1,0-0.3,0-0.4l-0.1-4.7c0-0.1-0.2-0.2-0.2-0.5v-1.8
		c0-0.3,0.2-0.3,0.2-0.5c0.1-2.1,0.4-3.7,0.4-4c0-0.3-1.2-1.1-1.5-1.1H6.3c-0.3,0-0.3,0.2-0.4,0.3c-2.2,0.3-3.7,4.1-3.7,6v4.2
		c0,0.5,0.1,1.4,0.2,2.4L0.2,32L0.2,32z M52.6,20.7c-0.3,0-0.6,0-1-0.2c-0.1,0-0.1,0-0.1,0.2c0,0.3,0,3.1,0.5,4.5
		c0.7,2,1.8,2.5,3.2,2.5c2,0,4.9-1.9,4.9-4.2c0-1.7-1.3-6.1-2.1-7C56.4,17.8,54.9,20.7,52.6,20.7L52.6,20.7z M22.1,23.3
		c0,2.5,2.8,4.3,4.9,4.3c0.9,0,0.7,0.2,2-0.7c0.5-0.4,1-0.9,1.1-1.3c0.2-0.9,0.6-3.3,0.6-4.2v-0.7c-2.8,0.8-4.2-2.6-6.5-4.3
		C23.2,17.5,22.1,21.7,22.1,23.3L22.1,23.3z M59.6,14.7c0,0.3,0.7,1.6,1,2.2c0.8,1.8,1,3.9,2,5.5c0.1,0.2,1.5,1,2,1
		c2.3,0,4.7-2.8,4.7-4.7c0-0.9-2.4-8.9-4.8-8.9C64.1,9.7,59.6,14.7,59.6,14.7L59.6,14.7z M16.6,10.6c-1.3,1.6-3.7,5.8-3.7,8
		c0,2.4,3,4.7,4.7,4.7c0.4,0,2-0.9,2-1c0.9-2,2.8-7.7,2.8-7.7c0-0.3-0.6-0.7-0.9-1c-0.4-0.5-3.4-4-4.1-4
		C17.3,9.7,16.9,10.3,16.6,10.6L16.6,10.6z M66.3,8.1c1.3,1.6,2.7,3.2,3.4,4.6c0.4,0.8,0.8,1.8,1.1,2.6c0.1,0.4,0.3,1.5,0.8,1.8
		c0.2,0.1,0.4,0.1,0.7,0.1c0.3,0,2.6-0.6,2.9-0.6c1.7,0,3.6,1.1,4.7,2.8c0.1-0.2,0.1-0.4,0.1-0.6c0-4.1-3.3-13-7.7-13h-2.3
		C68.9,5.9,67.1,7.3,66.3,8.1L66.3,8.1z M8,6.8c-3,1.7-5.8,8.4-5.8,11.6v1l0.1,0.1c1-1.8,3.2-2.8,4.8-2.8c0.9,0,2.4,0.6,2.9,0.6
		c0.5,0,1.1-0.5,1.2-0.9c0.8-2.5,2.1-6.1,4.9-8.2c-0.9-1.1-2.7-2.3-4.1-2.3H9.8C9.7,5.9,8.2,6.6,8,6.8L8,6.8z M34.5,15.3
		c0,1.2,0.9,3.3,2,3.3h1.7c0.7,0,2.1-1.8,2.6-2.4c0.8,1.9,2.6,2.6,3.8,2.6c2.4,0,3.2-1.8,3.2-3.4c0-1.2-1.6-6.2-1.7-6.4
		c-0.7-1.6-1.9-3.9-3.8-4V4c0.5-0.2,2.8,0.1,2.8-0.8c0-1-0.6-1.2-1.4-1.2H40C37.1,2,34.5,14.5,34.5,15.3L34.5,15.3z"/>
</g>
</svg>
